<svg width="429" height="248" viewBox="0 0 429 248" fill="none" xmlns="http://www.w3.org/2000/svg">
<path d="M253.233 179.972C256.179 175.756 261.985 174.727 266.2 177.674C270.415 180.62 271.444 186.425 268.498 190.641C265.552 194.856 259.746 195.885 255.531 192.939C251.315 189.992 250.287 184.187 253.233 179.972Z" fill="#FF764A"/>
<path d="M253.233 179.972C256.179 175.756 261.985 174.727 266.2 177.674C270.415 180.62 271.444 186.425 268.498 190.641C265.552 194.856 259.746 195.885 255.531 192.939C251.315 189.992 250.287 184.187 253.233 179.972Z" stroke="white"/>
<g filter="url(#filter0_d_10_6)">
<path d="M51.4319 205.632C42.9578 205.632 35.4926 204.152 29.0362 201.193C22.5798 198.234 17.603 194.131 14.1058 188.885C10.6085 183.505 8.85993 177.318 8.85993 170.323C8.85993 164.405 10.0705 159.025 12.4917 154.182C15.0473 149.34 18.41 145.506 22.5798 142.682C26.8841 139.857 31.5919 138.445 36.7032 138.445C41.411 138.445 45.379 139.655 48.6072 142.076C51.8354 144.363 53.853 147.591 54.6601 151.761C47.6656 151.761 42.0835 153.644 37.9138 157.41C33.744 161.042 31.6591 166.019 31.6591 172.341C31.6591 178.125 33.4077 182.765 36.905 186.263C40.4022 189.76 45.0427 191.508 50.8266 191.508C57.9555 191.508 63.8067 189.154 68.3799 184.447C73.0877 179.604 75.4416 173.551 75.4416 166.288C75.4416 159.966 73.693 153.98 70.1958 148.331C66.6986 142.682 61.4528 135.822 54.4583 127.751C47.1949 119.412 41.68 112.283 37.9138 106.364C34.282 100.312 32.4662 93.7207 32.4662 86.5917C32.4662 79.5973 34.4165 73.3426 38.3173 67.8278C42.218 62.1784 47.5984 57.7396 54.4583 54.5114C61.3182 51.2832 69.0525 49.6691 77.661 49.6691C88.5562 49.6691 97.232 52.2248 103.688 57.3361C110.279 62.4474 113.575 69.3074 113.575 77.9159C113.575 83.5653 112.162 88.1386 109.338 91.6358C106.513 95.133 102.814 96.8816 98.2408 96.8816C93.1295 96.8816 89.027 94.7967 85.9333 90.627C88.489 88.7438 90.5066 86.2554 91.9862 83.1617C93.4658 80.068 94.2056 76.8398 94.2056 73.4771C94.2056 69.1729 92.9277 65.7429 90.3721 63.1872C87.8164 60.6316 84.3192 59.3537 79.8804 59.3537C74.5001 59.3537 70.0613 61.3041 66.5641 65.2049C63.2014 68.9711 61.52 73.8134 61.52 79.7318C61.52 85.1121 63.0669 90.1562 66.1606 94.864C69.2542 99.4373 74.0966 105.356 80.6875 112.619C86.0678 118.403 90.3721 123.38 93.6003 127.55C96.963 131.719 99.7877 136.562 102.074 142.076C104.495 147.457 105.706 153.308 105.706 159.63C105.706 168.238 103.285 176.04 98.4426 183.034C93.7348 190.029 87.2111 195.544 78.8716 199.579C70.6666 203.614 61.52 205.632 51.4319 205.632ZM137.042 203.211C130.586 203.211 125.34 201.193 121.305 197.158C117.404 193.122 115.454 187.07 115.454 178.999C115.454 175.636 115.992 171.265 117.068 165.884L129.174 109.189H122.515L124.129 101.119H130.788L136.841 73.2754L166.701 69.2401L159.842 101.119H171.947L170.333 109.189H158.227L145.315 169.718C144.777 171.736 144.508 173.888 144.508 176.174C144.508 178.865 145.113 180.815 146.323 182.025C147.668 183.102 149.821 183.64 152.78 183.64C156.681 183.64 160.312 182.025 163.675 178.797C167.038 175.435 169.459 171.13 170.938 165.884H179.412C174.436 180.411 168.047 190.298 160.245 195.544C152.444 200.655 144.709 203.211 137.042 203.211ZM195.07 203.211C187.403 203.211 181.013 200.588 175.902 195.342C170.791 190.096 168.235 181.891 168.235 170.727C168.235 160.773 170.186 150.349 174.086 139.454C178.122 128.424 184.04 119.143 191.841 111.61C199.777 103.943 209.193 100.11 220.088 100.11C225.603 100.11 229.706 101.051 232.396 102.934C235.086 104.818 236.431 107.306 236.431 110.4V111.812L238.65 101.119H267.704L253.177 169.718C252.639 171.736 252.37 173.888 252.37 176.174C252.37 178.865 252.975 180.815 254.186 182.025C255.531 183.102 257.683 183.64 260.642 183.64C262.526 183.64 264.005 183.371 265.081 182.833C262.122 190.365 259.297 195.678 256.607 198.772C253.917 201.731 250.016 203.211 244.905 203.211C239.39 203.211 234.884 201.596 231.387 198.368C228.024 195.006 225.939 190.365 225.132 184.447C216.927 196.956 206.906 203.211 195.07 203.211ZM208.184 183.64C211.547 183.64 214.842 182.093 218.071 178.999C221.433 175.771 223.72 171.399 224.93 165.884L234.615 120.286C234.615 118.537 233.943 116.856 232.597 115.242C231.252 113.493 229.167 112.619 226.343 112.619C220.962 112.619 216.12 115.78 211.816 122.102C207.512 128.289 204.149 135.822 201.728 144.699C199.307 153.442 198.096 161.177 198.096 167.902C198.096 174.628 199.038 178.932 200.921 180.815C202.938 182.698 205.359 183.64 208.184 183.64Z" fill="#FF754A"/>
</g>
<g filter="url(#filter1_d_10_6)">
<rect x="256.305" y="161.934" width="203.864" height="39.2152" rx="19.6076" transform="rotate(-46.2329 256.305 161.934)" fill="#FF754A"/>
</g>
<rect x="264.782" y="189.599" width="12.1349" height="18.425" transform="rotate(-134.309 264.782 189.599)" fill="white" stroke="#FF764A" stroke-width="2.1017"/>
<defs>
<filter id="filter0_d_10_6" x="0.453144" y="49.6691" width="275.658" height="172.776" filterUnits="userSpaceOnUse" color-interpolation-filters="sRGB">
<feFlood flood-opacity="0" result="BackgroundImageFix"/>
<feColorMatrix in="SourceAlpha" type="matrix" values="0 0 0 0 0 0 0 0 0 0 0 0 0 0 0 0 0 0 127 0" result="hardAlpha"/>
<feOffset dy="8.40678"/>
<feGaussianBlur stdDeviation="4.20339"/>
<feComposite in2="hardAlpha" operator="out"/>
<feColorMatrix type="matrix" values="0 0 0 0 0 0 0 0 0 0 0 0 0 0 0 0 0 0 0.25 0"/>
<feBlend mode="normal" in2="BackgroundImageFix" result="effect1_dropShadow_10_6"/>
<feBlend mode="normal" in="SourceGraphic" in2="effect1_dropShadow_10_6" result="shape"/>
</filter>
<filter id="filter1_d_10_6" x="256.014" y="22.8271" width="169.921" height="174.932" filterUnits="userSpaceOnUse" color-interpolation-filters="sRGB">
<feFlood flood-opacity="0" result="BackgroundImageFix"/>
<feColorMatrix in="SourceAlpha" type="matrix" values="0 0 0 0 0 0 0 0 0 0 0 0 0 0 0 0 0 0 127 0" result="hardAlpha"/>
<feOffset dy="8.40678"/>
<feGaussianBlur stdDeviation="4.20339"/>
<feComposite in2="hardAlpha" operator="out"/>
<feColorMatrix type="matrix" values="0 0 0 0 0 0 0 0 0 0 0 0 0 0 0 0 0 0 0.25 0"/>
<feBlend mode="normal" in2="BackgroundImageFix" result="effect1_dropShadow_10_6"/>
<feBlend mode="normal" in="SourceGraphic" in2="effect1_dropShadow_10_6" result="shape"/>
</filter>
</defs>
</svg>
